# xmcd
#
# Track frame offsets:
#	150
#	20953
#	39459
#	61919
#	82773
#	103962
#	127802
#	147913
#	167078
#	180957
#	200218
#	218214
#	235886
#	260402
#	278057
#	296982
#
# Disc length: 4261 seconds
#
# Revision: 0
# Processed by: cddbd v1.5.1PL2 Copyright (c) Steve Scherf et al.
# Submitted via: dBpowerAMP V4.0
#
DISCID=ef10a310
DTITLE=Various Artist - Zondi's Romantic Ballads IV
DYEAR=2005
DGENRE=R and B
TTITLE0=All That You Are
TTITLE1=Charlene
TTITLE2=Another used to Be
TTITLE3=Can you stan the rain
TTITLE4=Around you
TTITLE5=Evewhere I am
TTITLE6=Say Yes
TTITLE7=There you Are 
TTITLE8=Don't know why
TTITLE9=Fall Again
TTITLE10=Seven Seas
TTITLE11=Love Calls
TTITLE12=Angel
TTITLE13=Have You Ever Loved Somebody
TTITLE14=License to Kill
TTITLE15=Leaving me now
EXTD=emi Music S.A
EXTT0=
EXTT1=
EXTT2=
EXTT3=
EXTT4=
EXTT5=
EXTT6=
EXTT7=
EXTT8=
EXTT9=
EXTT10=
EXTT11=
EXTT12=
EXTT13=
EXTT14=
EXTT15=
PLAYORDER=
